<svg xmlns="http://www.w3.org/2000/svg" width="1000" height="340" viewBox="0 0 1000 340" role="img" aria-label="Activity plate: commits per hour of day and twelve-month totals">
  <rect x="1" y="1" width="998" height="338" rx="8" fill="#FFFFFF" stroke="#D0D7DE"></rect>
  <g font-family="ui-monospace,SFMono-Regular,Menlo,Consolas,monospace" font-size="11" letter-spacing="2.2" fill="#656D76">
    <text x="32" y="36">PATTERN OF LIFE // TRAILING 12 MONTHS &#183; UTC +01:00</text>
    <text x="968" y="36" text-anchor="end">AS OF 2026-10-09</text>
  </g>
  <line x1="32" y1="50" x2="968" y2="50" stroke="#D0D7DE"></line>
  <g font-family="ui-monospace,SFMono-Regular,Menlo,Consolas,monospace" font-size="10" letter-spacing="2.4" fill="#8C959F">
    <text x="66" y="80">COMMITS PER HOUR</text>
    <text x="676" y="80">FIELD TOTALS</text>
  </g>
  <line x1="66" y1="262" x2="612" y2="262" stroke="#D8DEE4"></line>
  <text x="56" y="266" text-anchor="end" font-family="ui-monospace,SFMono-Regular,Menlo,Consolas,monospace" font-size="10" fill="#8C959F">0</text>
  <line x1="66" y1="216.12" x2="612" y2="216.12" stroke="#D8DEE4"></line>
  <text x="56" y="220.12" text-anchor="end" font-family="ui-monospace,SFMono-Regular,Menlo,Consolas,monospace" font-size="10" fill="#8C959F">10</text>
  <line x1="66" y1="170.24" x2="612" y2="170.24" stroke="#D8DEE4"></line>
  <text x="56" y="174.24" text-anchor="end" font-family="ui-monospace,SFMono-Regular,Menlo,Consolas,monospace" font-size="10" fill="#8C959F">20</text>
  <line x1="66" y1="124.35" x2="612" y2="124.35" stroke="#D8DEE4"></line>
  <text x="56" y="128.35" text-anchor="end" font-family="ui-monospace,SFMono-Regular,Menlo,Consolas,monospace" font-size="10" fill="#8C959F">30</text>
  <rect x="69.88" y="170.24" width="15" height="91.76" fill="#6A57F5" opacity="0.72"></rect>
  <rect x="92.63" y="179.41" width="15" height="82.59" fill="#6A57F5" opacity="0.72"></rect>
  <rect x="115.38" y="252.82" width="15" height="9.18" fill="#6A57F5" opacity="0.72"></rect>
  <rect x="138.13" y="260" width="15" height="2" fill="#D8DEE4"></rect>
  <rect x="160.88" y="260" width="15" height="2" fill="#D8DEE4"></rect>
  <rect x="183.63" y="260" width="15" height="2" fill="#D8DEE4"></rect>
  <rect x="206.38" y="260" width="15" height="2" fill="#D8DEE4"></rect>
  <rect x="229.13" y="260" width="15" height="2" fill="#D8DEE4"></rect>
  <rect x="251.88" y="260" width="15" height="2" fill="#D8DEE4"></rect>
  <rect x="274.63" y="260" width="15" height="2" fill="#D8DEE4"></rect>
  <rect x="297.38" y="260" width="15" height="2" fill="#D8DEE4"></rect>
  <rect x="320.13" y="243.65" width="15" height="18.35" fill="#6A57F5" opacity="0.72"></rect>
  <rect x="342.88" y="243.65" width="15" height="18.35" fill="#6A57F5" opacity="0.72"></rect>
  <rect x="365.63" y="216.12" width="15" height="45.88" fill="#6A57F5" opacity="0.72"></rect>
  <rect x="388.38" y="179.41" width="15" height="82.59" fill="#6A57F5" opacity="0.72"></rect>
  <rect x="411.13" y="197.76" width="15" height="64.24" fill="#6A57F5" opacity="0.72"></rect>
  <rect x="433.88" y="211.53" width="15" height="50.47" fill="#6A57F5" opacity="0.72"></rect>
  <rect x="456.63" y="220.71" width="15" height="41.29" fill="#6A57F5" opacity="0.72"></rect>
  <rect x="479.38" y="188.59" width="15" height="73.41" fill="#6A57F5" opacity="0.72"></rect>
  <rect x="502.13" y="174.82" width="15" height="87.18" fill="#6A57F5" opacity="0.72"></rect>
  <rect x="524.88" y="151.88" width="15" height="110.12" fill="#6A57F5" opacity="0.72"></rect>
  <rect x="547.63" y="193.18" width="15" height="68.82" fill="#6A57F5" opacity="0.72"></rect>
  <rect x="570.38" y="133.53" width="15" height="128.47" fill="#6A57F5" opacity="0.72"></rect>
  <rect x="593.13" y="106" width="15" height="156" fill="#6A57F5"></rect>
  <text x="600.63" y="98" text-anchor="middle" font-family="ui-monospace,SFMono-Regular,Menlo,Consolas,monospace" font-size="10" font-weight="700" fill="#6A57F5">34</text>
  <text x="77.38" y="282" text-anchor="middle" font-family="ui-monospace,SFMono-Regular,Menlo,Consolas,monospace" font-size="10" fill="#8C959F">00</text>
  <text x="213.88" y="282" text-anchor="middle" font-family="ui-monospace,SFMono-Regular,Menlo,Consolas,monospace" font-size="10" fill="#8C959F">06</text>
  <text x="350.38" y="282" text-anchor="middle" font-family="ui-monospace,SFMono-Regular,Menlo,Consolas,monospace" font-size="10" fill="#8C959F">12</text>
  <text x="486.88" y="282" text-anchor="middle" font-family="ui-monospace,SFMono-Regular,Menlo,Consolas,monospace" font-size="10" fill="#8C959F">18</text>
  <text x="600.63" y="282" text-anchor="middle" font-family="ui-monospace,SFMono-Regular,Menlo,Consolas,monospace" font-size="10" fill="#8C959F">23</text>
  <line x1="66" y1="262" x2="612" y2="262" stroke="#D0D7DE"></line>
  <line x1="648" y1="66" x2="648" y2="286" stroke="#D8DEE4"></line>
  <text x="676" y="126" font-family="ui-monospace,SFMono-Regular,Menlo,Consolas,monospace" font-size="11" letter-spacing="2" fill="#656D76">COMMITS</text>
  <text x="952" y="128" text-anchor="end" font-family="ui-monospace,SFMono-Regular,Menlo,Consolas,monospace" font-size="26" font-weight="700" fill="#1F2328">251</text>
  <text x="952" y="144" text-anchor="end" font-family="ui-monospace,SFMono-Regular,Menlo,Consolas,monospace" font-size="9" letter-spacing="1.6" fill="#8C959F">PRIOR YEAR 5</text>
  <line x1="676" y1="156" x2="952" y2="156" stroke="#D8DEE4"></line>
  <text x="676" y="177" font-family="ui-monospace,SFMono-Regular,Menlo,Consolas,monospace" font-size="11" letter-spacing="2" fill="#656D76">PULL REQUESTS</text>
  <text x="952" y="179" text-anchor="end" font-family="ui-monospace,SFMono-Regular,Menlo,Consolas,monospace" font-size="19" font-weight="700" fill="#1F2328">33</text>
  <line x1="676" y1="188.5" x2="952" y2="188.5" stroke="#D8DEE4"></line>
  <text x="676" y="209.5" font-family="ui-monospace,SFMono-Regular,Menlo,Consolas,monospace" font-size="11" letter-spacing="2" fill="#656D76">ISSUES</text>
  <text x="952" y="211.5" text-anchor="end" font-family="ui-monospace,SFMono-Regular,Menlo,Consolas,monospace" font-size="19" font-weight="700" fill="#1F2328">30</text>
  <line x1="676" y1="221" x2="952" y2="221" stroke="#D8DEE4"></line>
  <text x="676" y="242" font-family="ui-monospace,SFMono-Regular,Menlo,Consolas,monospace" font-size="11" letter-spacing="2" fill="#656D76">STARS EARNED</text>
  <text x="952" y="244" text-anchor="end" font-family="ui-monospace,SFMono-Regular,Menlo,Consolas,monospace" font-size="19" font-weight="700" fill="#1F2328">16</text>
  <line x1="676" y1="253.5" x2="952" y2="253.5" stroke="#D8DEE4"></line>
  <text x="676" y="274.5" font-family="ui-monospace,SFMono-Regular,Menlo,Consolas,monospace" font-size="11" letter-spacing="2" fill="#656D76">REPOS TOUCHED</text>
  <text x="952" y="276.5" text-anchor="end" font-family="ui-monospace,SFMono-Regular,Menlo,Consolas,monospace" font-size="19" font-weight="700" fill="#1F2328">11</text>
  <line x1="32" y1="306" x2="968" y2="306" stroke="#D0D7DE"></line>
  <text x="32" y="326" font-family="ui-monospace,SFMono-Regular,Menlo,Consolas,monospace" font-size="11" letter-spacing="2" fill="#656D76">DORMANT 03:00&#8211;11:00 &#183; PEAK AT 23:00 &#183; SUBJECT OPERATES AFTER DARK</text>
</svg>
